G75*
%MOIN*%
%OFA0B0*%
%FSLAX24Y24*%
%IPPOS*%
%LPD*%
%AMOC8*
5,1,8,0,0,1.08239X$1,22.5*
%
%ADD10R,0.0740X0.0740*%
%ADD11C,0.0740*%
%ADD12C,0.0100*%
%ADD13C,0.0270*%
D10*
X002700Y001700D03*
D11*
X001700Y001700D03*
X001700Y002700D03*
X002700Y002700D03*
X002700Y003700D03*
X001700Y003700D03*
X001700Y004700D03*
X002700Y004700D03*
D12*
X003136Y004401D02*
X007160Y004401D01*
X007139Y004392D02*
X007097Y004350D01*
X005567Y004350D01*
X005450Y004233D01*
X003617Y002400D01*
X003135Y002400D01*
X003141Y002405D01*
X003220Y002597D01*
X003220Y002803D01*
X003141Y002995D01*
X002995Y003141D01*
X002852Y003200D01*
X002995Y003259D01*
X003141Y003405D01*
X003220Y003597D01*
X003220Y003803D01*
X003141Y003995D01*
X002995Y004141D01*
X002852Y004200D01*
X002995Y004259D01*
X003141Y004405D01*
X003220Y004597D01*
X003220Y004803D01*
X003141Y004995D01*
X003085Y005050D01*
X008250Y005050D01*
X008250Y001350D01*
X003220Y001350D01*
X003220Y001650D01*
X002750Y001650D01*
X002750Y001750D01*
X003097Y001750D01*
X003139Y001708D01*
X003243Y001665D01*
X003357Y001665D01*
X003461Y001708D01*
X003542Y001789D01*
X003585Y001893D01*
X003585Y002000D01*
X003783Y002000D01*
X004333Y002550D01*
X004358Y002489D01*
X004439Y002408D01*
X004543Y002365D01*
X004602Y002365D01*
X004750Y002217D01*
X004867Y002100D01*
X005683Y002100D01*
X006198Y002615D01*
X006257Y002615D01*
X006361Y002658D01*
X006442Y002739D01*
X006485Y002843D01*
X006485Y002918D01*
X006493Y002915D01*
X006607Y002915D01*
X006711Y002958D01*
X006792Y003039D01*
X006835Y003143D01*
X006835Y003257D01*
X006792Y003361D01*
X006711Y003442D01*
X006607Y003485D01*
X006493Y003485D01*
X006389Y003442D01*
X006347Y003400D01*
X005967Y003400D01*
X005850Y003283D01*
X005402Y002835D01*
X005343Y002835D01*
X005239Y002792D01*
X005158Y002711D01*
X005115Y002607D01*
X005115Y002500D01*
X005033Y002500D01*
X004885Y002648D01*
X004885Y002707D01*
X004842Y002811D01*
X004761Y002892D01*
X004700Y002917D01*
X005733Y003950D01*
X007097Y003950D01*
X007139Y003908D01*
X005691Y003908D01*
X005592Y003810D02*
X008250Y003810D01*
X008250Y003908D02*
X007461Y003908D01*
X007542Y003989D01*
X007585Y004093D01*
X007585Y004207D01*
X007542Y004311D01*
X007461Y004392D01*
X007357Y004435D01*
X007243Y004435D01*
X007139Y004392D01*
X007440Y004401D02*
X008250Y004401D01*
X008250Y004499D02*
X003180Y004499D01*
X003220Y004598D02*
X008250Y004598D01*
X008250Y004696D02*
X003220Y004696D01*
X003220Y004795D02*
X008250Y004795D01*
X008250Y004893D02*
X003183Y004893D01*
X003142Y004992D02*
X008250Y004992D01*
X008250Y004302D02*
X007546Y004302D01*
X007585Y004204D02*
X008250Y004204D01*
X008250Y004105D02*
X007585Y004105D01*
X007549Y004007D02*
X008250Y004007D01*
X008250Y003711D02*
X005494Y003711D01*
X005395Y003613D02*
X008250Y003613D01*
X008250Y003514D02*
X005297Y003514D01*
X005198Y003416D02*
X006362Y003416D01*
X006550Y003200D02*
X006050Y003200D01*
X005400Y002550D01*
X005115Y002529D02*
X005004Y002529D01*
X004905Y002628D02*
X005124Y002628D01*
X005173Y002726D02*
X004877Y002726D01*
X004829Y002825D02*
X005318Y002825D01*
X005490Y002923D02*
X004706Y002923D01*
X004804Y003022D02*
X005589Y003022D01*
X005687Y003120D02*
X004903Y003120D01*
X005001Y003219D02*
X005786Y003219D01*
X005884Y003317D02*
X005100Y003317D01*
X004731Y003514D02*
X003186Y003514D01*
X003145Y003416D02*
X004633Y003416D01*
X004534Y003317D02*
X003052Y003317D01*
X002896Y003219D02*
X004436Y003219D01*
X004337Y003120D02*
X003015Y003120D01*
X003114Y003022D02*
X004239Y003022D01*
X004140Y002923D02*
X003170Y002923D01*
X003211Y002825D02*
X004042Y002825D01*
X003943Y002726D02*
X003220Y002726D01*
X003220Y002628D02*
X003845Y002628D01*
X003746Y002529D02*
X003192Y002529D01*
X003151Y002431D02*
X003648Y002431D01*
X003700Y002200D02*
X003350Y002200D01*
X003300Y002150D01*
X003250Y002200D01*
X003300Y002200D01*
X003300Y002150D01*
X003300Y001950D01*
X003563Y001840D02*
X008250Y001840D01*
X008250Y001938D02*
X003585Y001938D01*
X003819Y002037D02*
X008250Y002037D01*
X008250Y002135D02*
X005718Y002135D01*
X005816Y002234D02*
X008250Y002234D01*
X008250Y002332D02*
X005915Y002332D01*
X006013Y002431D02*
X008250Y002431D01*
X008250Y002529D02*
X006112Y002529D01*
X006287Y002628D02*
X008250Y002628D01*
X008250Y002726D02*
X006429Y002726D01*
X006477Y002825D02*
X008250Y002825D01*
X008250Y002923D02*
X006626Y002923D01*
X006775Y003022D02*
X008250Y003022D01*
X008250Y003120D02*
X006825Y003120D01*
X006835Y003219D02*
X008250Y003219D01*
X008250Y003317D02*
X006810Y003317D01*
X006738Y003416D02*
X008250Y003416D01*
X007461Y003908D02*
X007357Y003865D01*
X007243Y003865D01*
X007139Y003908D01*
X007300Y004150D02*
X005650Y004150D01*
X003700Y002200D01*
X003918Y002135D02*
X004832Y002135D01*
X004734Y002234D02*
X004016Y002234D01*
X004115Y002332D02*
X004635Y002332D01*
X004416Y002431D02*
X004213Y002431D01*
X004312Y002529D02*
X004342Y002529D01*
X004600Y002650D02*
X004950Y002300D01*
X005600Y002300D01*
X006200Y002900D01*
X004928Y003711D02*
X003220Y003711D01*
X003220Y003613D02*
X004830Y003613D01*
X005027Y003810D02*
X003217Y003810D01*
X003177Y003908D02*
X005125Y003908D01*
X005224Y004007D02*
X003129Y004007D01*
X003030Y004105D02*
X005322Y004105D01*
X005421Y004204D02*
X002860Y004204D01*
X003037Y004302D02*
X005519Y004302D01*
X003350Y002200D02*
X003300Y002200D01*
X003250Y002200D02*
X002200Y002200D01*
X001700Y001700D01*
X002750Y001741D02*
X003106Y001741D01*
X003220Y001643D02*
X008250Y001643D01*
X008250Y001741D02*
X003494Y001741D01*
X003220Y001544D02*
X008250Y001544D01*
X008250Y001446D02*
X003220Y001446D01*
D13*
X003300Y001950D03*
X003700Y002850D03*
X004600Y002650D03*
X005400Y002550D03*
X006200Y002900D03*
X006550Y003200D03*
X005350Y003150D03*
X006600Y002000D03*
X007500Y001550D03*
X008100Y002100D03*
X008100Y003400D03*
X007300Y004150D03*
X007200Y004700D03*
X003900Y004500D03*
X004750Y001450D03*
M02*
