G75*
%MOIN*%
%OFA0B0*%
%FSLAX24Y24*%
%IPPOS*%
%LPD*%
%AMOC8*
5,1,8,0,0,1.08239X$1,22.5*
%
%ADD10R,0.0476X0.0118*%
%ADD11R,0.0394X0.0283*%
%ADD12R,0.0157X0.0630*%
%ADD13R,0.0394X0.0276*%
%ADD14R,0.0740X0.0740*%
%ADD15C,0.0740*%
%ADD16C,0.0100*%
%ADD17C,0.0270*%
D10*
X007121Y002455D03*
X007121Y002652D03*
X007121Y002848D03*
X007121Y003045D03*
D11*
X007654Y003376D03*
X007654Y002124D03*
D12*
X006096Y002019D03*
X005840Y002019D03*
X005584Y002019D03*
X005328Y002019D03*
X005072Y002019D03*
X004816Y002019D03*
X004560Y002019D03*
X004304Y002019D03*
X004304Y004381D03*
X004560Y004381D03*
X004816Y004381D03*
X005072Y004381D03*
X005328Y004381D03*
X005584Y004381D03*
X005840Y004381D03*
X006096Y004381D03*
D13*
X006700Y004595D03*
X006700Y004005D03*
X003700Y002495D03*
X003700Y001905D03*
D14*
X002700Y001700D03*
D15*
X001700Y001700D03*
X001700Y002700D03*
X002700Y002700D03*
X002700Y003700D03*
X001700Y003700D03*
X001700Y004700D03*
X002700Y004700D03*
D16*
X003000Y004400D01*
X003400Y004400D01*
X003650Y004150D01*
X004304Y004150D01*
X004304Y004381D01*
X004560Y004381D02*
X004560Y004010D01*
X004500Y003950D01*
X003550Y003950D01*
X003300Y004200D01*
X002200Y004200D01*
X001700Y004700D01*
X002700Y003700D02*
X002750Y003750D01*
X004600Y003750D01*
X004816Y003966D01*
X004816Y004381D01*
X005072Y004381D02*
X005072Y003922D01*
X004700Y003550D01*
X003350Y003550D01*
X003000Y003200D01*
X002200Y003200D01*
X001700Y003700D01*
X001700Y002700D02*
X002200Y002200D01*
X003000Y002200D01*
X003300Y002500D01*
X003300Y002900D01*
X003550Y003150D01*
X004900Y003150D01*
X005584Y003834D01*
X005584Y004381D01*
X005840Y004381D02*
X005840Y004010D01*
X005900Y003950D01*
X006645Y003950D01*
X006700Y004005D01*
X006705Y004000D01*
X007150Y004000D01*
X007300Y004150D01*
X007542Y004311D02*
X007461Y004392D01*
X007357Y004435D01*
X007243Y004435D01*
X007139Y004392D01*
X007058Y004311D01*
X007024Y004228D01*
X006959Y004293D01*
X006441Y004293D01*
X006353Y004205D01*
X006353Y004150D01*
X006324Y004150D01*
X006324Y004758D01*
X006237Y004846D01*
X004163Y004846D01*
X004076Y004758D01*
X004076Y004350D01*
X003733Y004350D01*
X003600Y004483D01*
X003483Y004600D01*
X003220Y004600D01*
X003220Y004803D01*
X003141Y004995D01*
X003085Y005050D01*
X008250Y005050D01*
X008250Y003254D01*
X008001Y003254D01*
X008001Y003580D01*
X007913Y003668D01*
X007395Y003668D01*
X007307Y003580D01*
X007307Y003254D01*
X006835Y003254D01*
X006835Y003257D01*
X006792Y003361D01*
X006711Y003442D01*
X006607Y003485D01*
X006493Y003485D01*
X006389Y003442D01*
X006308Y003361D01*
X006265Y003257D01*
X006265Y003182D01*
X006257Y003185D01*
X006143Y003185D01*
X006039Y003142D01*
X005958Y003061D01*
X005915Y002957D01*
X005915Y002852D01*
X005781Y002852D01*
X005633Y003000D01*
X005086Y003000D01*
X004968Y002883D01*
X004968Y002883D01*
X004858Y002772D01*
X004842Y002811D01*
X004761Y002892D01*
X004657Y002935D01*
X004543Y002935D01*
X004439Y002892D01*
X004358Y002811D01*
X004315Y002707D01*
X004315Y002593D01*
X004358Y002489D01*
X004360Y002487D01*
X004360Y002484D01*
X004163Y002484D01*
X004076Y002396D01*
X004076Y002105D01*
X004047Y002105D01*
X003959Y002193D01*
X003459Y002193D01*
X003357Y002235D01*
X003318Y002235D01*
X003370Y002288D01*
X003383Y002265D01*
X003411Y002237D01*
X003445Y002218D01*
X003483Y002207D01*
X003681Y002207D01*
X003681Y002476D01*
X003719Y002476D01*
X003719Y002207D01*
X003917Y002207D01*
X003955Y002218D01*
X003989Y002237D01*
X004017Y002265D01*
X004037Y002300D01*
X004047Y002338D01*
X004047Y002476D01*
X003719Y002476D01*
X003719Y002514D01*
X004047Y002514D01*
X004047Y002653D01*
X004037Y002691D01*
X004017Y002725D01*
X003989Y002753D01*
X003955Y002773D01*
X003917Y002783D01*
X003719Y002783D01*
X003719Y002514D01*
X003681Y002514D01*
X003681Y002783D01*
X003500Y002783D01*
X003500Y002817D01*
X003633Y002950D01*
X004983Y002950D01*
X005100Y003067D01*
X005784Y003751D01*
X005784Y003783D01*
X005817Y003750D01*
X006408Y003750D01*
X006441Y003717D01*
X006959Y003717D01*
X007042Y003800D01*
X007233Y003800D01*
X007298Y003865D01*
X007357Y003865D01*
X007461Y003908D01*
X008250Y003908D01*
X008250Y003810D02*
X007242Y003810D01*
X007340Y003613D02*
X005645Y003613D01*
X005744Y003711D02*
X008250Y003711D01*
X008250Y003613D02*
X007969Y003613D01*
X008001Y003514D02*
X008250Y003514D01*
X008250Y003416D02*
X008001Y003416D01*
X008001Y003317D02*
X008250Y003317D01*
X007542Y003989D02*
X007461Y003908D01*
X007542Y003989D02*
X007585Y004093D01*
X007585Y004207D01*
X007542Y004311D01*
X007546Y004302D02*
X008250Y004302D01*
X008250Y004204D02*
X007585Y004204D01*
X007585Y004105D02*
X008250Y004105D01*
X008250Y004007D02*
X007549Y004007D01*
X007440Y004401D02*
X008250Y004401D01*
X008250Y004499D02*
X007047Y004499D01*
X007047Y004438D02*
X007047Y004576D01*
X006719Y004576D01*
X006719Y004307D01*
X006917Y004307D01*
X006955Y004318D01*
X006989Y004337D01*
X007017Y004365D01*
X007037Y004400D01*
X007037Y004401D02*
X007160Y004401D01*
X007047Y004438D02*
X007037Y004400D01*
X007054Y004302D02*
X006324Y004302D01*
X006383Y004365D02*
X006411Y004337D01*
X006445Y004318D01*
X006483Y004307D01*
X006681Y004307D01*
X006681Y004576D01*
X006719Y004576D01*
X006719Y004614D01*
X007047Y004614D01*
X007047Y004753D01*
X007037Y004791D01*
X007017Y004825D01*
X006989Y004853D01*
X006955Y004873D01*
X006917Y004883D01*
X006719Y004883D01*
X006719Y004614D01*
X006681Y004614D01*
X006681Y004576D01*
X006353Y004576D01*
X006353Y004438D01*
X006363Y004400D01*
X006363Y004401D02*
X006324Y004401D01*
X006363Y004400D02*
X006383Y004365D01*
X006353Y004499D02*
X006324Y004499D01*
X006324Y004598D02*
X006681Y004598D01*
X006681Y004614D02*
X006353Y004614D01*
X006353Y004753D01*
X006363Y004791D01*
X006383Y004825D01*
X006411Y004853D01*
X006445Y004873D01*
X006483Y004883D01*
X006681Y004883D01*
X006681Y004614D01*
X006719Y004598D02*
X008250Y004598D01*
X008250Y004696D02*
X007047Y004696D01*
X007035Y004795D02*
X008250Y004795D01*
X008250Y004893D02*
X003183Y004893D01*
X003220Y004795D02*
X004112Y004795D01*
X004076Y004696D02*
X003220Y004696D01*
X003485Y004598D02*
X004076Y004598D01*
X004076Y004499D02*
X003584Y004499D01*
X003682Y004401D02*
X004076Y004401D01*
X003142Y004992D02*
X008250Y004992D01*
X006719Y004795D02*
X006681Y004795D01*
X006681Y004696D02*
X006719Y004696D01*
X006719Y004499D02*
X006681Y004499D01*
X006681Y004401D02*
X006719Y004401D01*
X006353Y004204D02*
X006324Y004204D01*
X006324Y004696D02*
X006353Y004696D01*
X006365Y004795D02*
X006288Y004795D01*
X005328Y004381D02*
X005328Y003878D01*
X004800Y003350D01*
X003450Y003350D01*
X002800Y002700D01*
X002700Y002700D01*
X003360Y002234D02*
X003418Y002234D01*
X003681Y002234D02*
X003719Y002234D01*
X003719Y002332D02*
X003681Y002332D01*
X003681Y002431D02*
X003719Y002431D01*
X003719Y002529D02*
X003681Y002529D01*
X003681Y002628D02*
X003719Y002628D01*
X003719Y002726D02*
X003681Y002726D01*
X003507Y002825D02*
X004371Y002825D01*
X004323Y002726D02*
X004016Y002726D01*
X004047Y002628D02*
X004315Y002628D01*
X004342Y002529D02*
X004047Y002529D01*
X004047Y002431D02*
X004110Y002431D01*
X004076Y002332D02*
X004045Y002332D01*
X004076Y002234D02*
X003982Y002234D01*
X004016Y002135D02*
X004076Y002135D01*
X004304Y002019D02*
X004304Y001905D01*
X003700Y001905D01*
X003345Y001905D01*
X003300Y001950D01*
X003097Y001750D02*
X003139Y001708D01*
X003243Y001665D01*
X003357Y001665D01*
X003382Y001676D01*
X003441Y001617D01*
X003959Y001617D01*
X004047Y001705D01*
X004076Y001705D01*
X004076Y001642D01*
X004163Y001554D01*
X004872Y001554D01*
X004872Y001395D01*
X004917Y001350D01*
X003220Y001350D01*
X003220Y001650D01*
X002750Y001650D01*
X002750Y001750D01*
X003097Y001750D01*
X003106Y001741D02*
X002750Y001741D01*
X003220Y001643D02*
X003415Y001643D01*
X003220Y001544D02*
X004872Y001544D01*
X004872Y001446D02*
X003220Y001446D01*
X003985Y001643D02*
X004076Y001643D01*
X004560Y002019D02*
X004560Y002610D01*
X004600Y002650D01*
X004829Y002825D02*
X004910Y002825D01*
X005009Y002923D02*
X004686Y002923D01*
X004514Y002923D02*
X003606Y002923D01*
X004816Y002448D02*
X005168Y002800D01*
X005550Y002800D01*
X005698Y002652D01*
X007121Y002652D01*
X007121Y002848D02*
X007119Y002850D01*
X006250Y002850D01*
X006200Y002900D01*
X005942Y003022D02*
X005054Y003022D01*
X005153Y003120D02*
X006017Y003120D01*
X006265Y003219D02*
X005251Y003219D01*
X005350Y003317D02*
X006290Y003317D01*
X006362Y003416D02*
X005448Y003416D01*
X005547Y003514D02*
X007307Y003514D01*
X007307Y003416D02*
X006738Y003416D01*
X006810Y003317D02*
X007307Y003317D01*
X007121Y003045D02*
X006705Y003045D01*
X006550Y003200D01*
X005915Y002923D02*
X005710Y002923D01*
X005400Y002550D02*
X005328Y002478D01*
X005328Y002019D01*
X005072Y002019D02*
X005072Y001478D01*
X005200Y001350D01*
X006850Y001350D01*
X007121Y001621D01*
X007121Y002455D01*
X006921Y002246D02*
X006821Y002246D01*
X006733Y002334D01*
X006733Y002452D01*
X006269Y002452D01*
X006324Y002396D01*
X006324Y001642D01*
X006237Y001554D01*
X005699Y001554D01*
X005695Y001557D01*
X005682Y001554D01*
X005584Y001554D01*
X005584Y002019D01*
X005584Y002019D01*
X005584Y001554D01*
X005485Y001554D01*
X005472Y001557D01*
X005469Y001554D01*
X005279Y001554D01*
X005283Y001550D01*
X006767Y001550D01*
X006921Y001704D01*
X006921Y002246D01*
X006921Y002234D02*
X006324Y002234D01*
X006324Y002332D02*
X006734Y002332D01*
X006733Y002431D02*
X006290Y002431D01*
X006324Y002135D02*
X006921Y002135D01*
X006921Y002037D02*
X006324Y002037D01*
X006324Y001938D02*
X006921Y001938D01*
X006921Y001840D02*
X006324Y001840D01*
X006324Y001741D02*
X006921Y001741D01*
X006860Y001643D02*
X006324Y001643D01*
X005584Y001643D02*
X005584Y001643D01*
X005584Y001741D02*
X005584Y001741D01*
X005584Y001840D02*
X005584Y001840D01*
X005584Y001938D02*
X005584Y001938D01*
X004816Y002019D02*
X004816Y002448D01*
X007133Y001350D02*
X007204Y001421D01*
X007321Y001538D01*
X007321Y001907D01*
X007395Y001832D01*
X007913Y001832D01*
X008001Y001920D01*
X008001Y002246D01*
X008250Y002246D01*
X008250Y001350D01*
X007133Y001350D01*
X007228Y001446D02*
X008250Y001446D01*
X008250Y001544D02*
X007321Y001544D01*
X007321Y001643D02*
X008250Y001643D01*
X008250Y001741D02*
X007321Y001741D01*
X007321Y001840D02*
X007388Y001840D01*
X007921Y001840D02*
X008250Y001840D01*
X008250Y001938D02*
X008001Y001938D01*
X008001Y002037D02*
X008250Y002037D01*
X008250Y002135D02*
X008001Y002135D01*
X008001Y002234D02*
X008250Y002234D01*
D17*
X008100Y002100D03*
X007500Y001550D03*
X006600Y002000D03*
X005400Y002550D03*
X004600Y002650D03*
X005350Y003150D03*
X006200Y002900D03*
X006550Y003200D03*
X007300Y004150D03*
X007200Y004700D03*
X008100Y003400D03*
X004750Y001450D03*
X003300Y001950D03*
X003700Y002850D03*
X003900Y004500D03*
M02*
