G75*
%MOIN*%
%OFA0B0*%
%FSLAX24Y24*%
%IPPOS*%
%LPD*%
%AMOC8*
5,1,8,0,0,1.08239X$1,22.5*
%
%ADD10C,0.0075*%
%ADD11C,0.0030*%
%ADD12C,0.0098*%
%ADD13C,0.0040*%
D10*
X001075Y001075D02*
X003325Y001075D01*
X003325Y005325D01*
X001075Y005325D01*
X001075Y001075D01*
X003543Y002121D02*
X003543Y002279D01*
X003857Y002279D02*
X003857Y002121D01*
X004078Y001606D02*
X004078Y004794D01*
X006322Y004794D01*
X006322Y001606D01*
X004078Y001606D01*
X006627Y001884D02*
X008280Y001884D01*
X006627Y001884D02*
X006627Y003616D01*
X008280Y003616D01*
X006857Y004221D02*
X006857Y004379D01*
X006543Y004379D02*
X006543Y004221D01*
D11*
X006850Y003292D02*
X006850Y003145D01*
X006740Y003255D01*
X006960Y003255D01*
X006960Y002249D02*
X006960Y002102D01*
X006960Y002175D02*
X006740Y002175D01*
X006813Y002102D01*
D12*
X006489Y001766D02*
X006491Y001774D01*
X006496Y001781D01*
X006503Y001785D01*
X006511Y001786D01*
X006519Y001783D01*
X006525Y001778D01*
X006529Y001770D01*
X006529Y001762D01*
X006525Y001754D01*
X006519Y001749D01*
X006511Y001746D01*
X006503Y001747D01*
X006496Y001751D01*
X006491Y001758D01*
X006489Y001766D01*
X003921Y001487D02*
X003923Y001499D01*
X003928Y001510D01*
X003937Y001519D01*
X003948Y001524D01*
X003960Y001526D01*
X003972Y001524D01*
X003983Y001519D01*
X003992Y001510D01*
X003997Y001499D01*
X003999Y001487D01*
X003997Y001475D01*
X003992Y001464D01*
X003983Y001455D01*
X003972Y001450D01*
X003960Y001448D01*
X003948Y001450D01*
X003937Y001455D01*
X003928Y001464D01*
X003923Y001475D01*
X003921Y001487D01*
D13*
X003807Y001446D02*
X003667Y001446D01*
X003737Y001446D02*
X003737Y001656D01*
X003667Y001586D01*
X003577Y001621D02*
X003542Y001656D01*
X003472Y001656D01*
X003437Y001621D01*
X003437Y001481D01*
X003472Y001446D01*
X003542Y001446D01*
X003577Y001481D01*
X005970Y001474D02*
X005970Y001299D01*
X006005Y001264D01*
X006075Y001264D01*
X006110Y001299D01*
X006110Y001474D01*
X006200Y001404D02*
X006270Y001474D01*
X006270Y001264D01*
X006200Y001264D02*
X006340Y001264D01*
X006670Y001555D02*
X006705Y001520D01*
X006740Y001520D01*
X006775Y001555D01*
X006775Y001730D01*
X006740Y001730D02*
X006810Y001730D01*
X006900Y001660D02*
X006970Y001730D01*
X006970Y001520D01*
X006900Y001520D02*
X007040Y001520D01*
X006907Y004846D02*
X006767Y004846D01*
X006907Y004986D01*
X006907Y005021D01*
X006872Y005056D01*
X006802Y005056D01*
X006767Y005021D01*
X006677Y005021D02*
X006642Y005056D01*
X006572Y005056D01*
X006537Y005021D01*
X006537Y004881D01*
X006572Y004846D01*
X006642Y004846D01*
X006677Y004881D01*
X003840Y004920D02*
X003700Y004920D01*
X003840Y005060D01*
X003840Y005095D01*
X003805Y005130D01*
X003735Y005130D01*
X003700Y005095D01*
X003610Y005130D02*
X003540Y005130D01*
X003575Y005130D02*
X003575Y004955D01*
X003540Y004920D01*
X003505Y004920D01*
X003470Y004955D01*
M02*
